<svg width="946" height="310" viewBox="0 0 946 310" fill="none" xmlns="http://www.w3.org/2000/svg">
<path d="M826.172 229.381C828.286 228.942 830.76 229.122 832.927 229.084C832.965 229.164 833.001 229.245 833.04 229.324C833.215 229.677 833.388 230.022 833.501 230.402C833.985 232.024 834.3 281.257 833.923 286.649C833.886 287.167 833.631 287.673 833.378 288.118L833.066 288.601C831.567 289.392 827.946 288.858 826.181 288.812C826.324 288.545 826.457 288.272 826.566 287.989C827.309 286.056 826.995 236.795 826.732 231.549C826.693 230.774 826.479 230.09 826.172 229.381Z" fill="#99BFFF"/>
<path d="M859.647 229.381C861.831 229.009 864.159 229.189 866.371 229.233C867.163 230.73 867.152 232.26 867.211 233.91C867.423 239.82 867.059 245.767 867.069 251.682C867.081 259.618 868.018 268.598 866.473 276.36C865.837 279.552 864.565 282.663 862.307 285.056C858.386 289.211 853.139 289.79 847.721 289.973C846.672 289.516 844.886 289.754 843.707 289.563C842.569 289.379 842.311 289.189 841.667 288.286C841.528 286.766 841.749 285.587 842.117 284.132C843.52 283.225 850.771 284.091 853.259 283.569C855.019 283.2 856.543 281.575 857.5 280.114C858.641 278.372 859.381 276.31 859.678 274.253C860.477 268.721 860.736 234.593 859.647 229.381Z" fill="#99BFFF"/>
<path d="M677.981 229.381C684.433 228.361 702.342 229.006 709.444 229.355C709.614 229.661 709.722 229.998 709.816 230.334C710.262 231.924 710.047 233.591 709.261 235.025C701.07 234.409 692.51 234.792 684.3 235.097C684.454 235.361 684.596 235.63 684.714 235.912C685.651 238.155 685.433 252.604 684.43 254.977C692.373 254.902 700.326 255.012 708.27 255.044C708.459 255.335 708.589 255.664 708.703 255.991C709.248 257.557 709.062 259.253 708.357 260.726C700.392 260.248 692.133 260.709 684.144 260.856C684.422 261.26 684.613 261.671 684.751 262.14C685.298 264.003 685.057 265.578 684.147 267.266C684.344 267.586 684.535 267.925 684.664 268.28C685.713 271.173 685.557 280.426 684.363 283.158L711.066 283.306C711.142 283.442 711.142 283.433 711.208 283.606C711.85 285.3 711.715 287.5 710.983 289.13C699.967 288.378 688.544 288.991 677.488 289.051C677.521 288.981 677.553 288.912 677.587 288.843C678.843 286.277 678.204 235.959 677.981 229.381Z" fill="#99BFFF"/>
<path d="M575.665 229.381C585.434 228.219 597.282 229.144 607.277 229.222C607.47 229.519 607.584 229.807 607.684 230.149C608.156 231.752 608.022 233.503 607.23 234.972C599.052 234.864 590.875 234.89 582.697 235.05C582.732 235.121 582.766 235.193 582.803 235.263C583.003 235.651 583.187 236.027 583.297 236.453C583.922 238.863 583.862 252.985 582.632 255.017C590.609 254.723 598.6 254.936 606.579 255.05C606.75 255.301 606.864 255.541 606.964 255.828C607.562 257.55 607.457 259.351 606.663 260.979C598.749 260.529 590.686 260.828 582.761 260.94C582.936 261.22 583.048 261.481 583.143 261.797C583.689 263.609 583.409 265.172 582.506 266.803C582.775 267.248 583.028 267.73 583.134 268.243C583.769 271.308 584.032 280.762 582.496 283.211C591.412 283.177 600.385 283.101 609.292 283.446C609.373 283.62 609.437 283.796 609.493 283.98C609.99 285.596 609.847 287.596 609.063 289.086C597.911 288.995 586.76 289.034 575.609 289.205C575.638 289.154 575.668 289.104 575.695 289.053C576.748 287.105 576.407 231.823 575.665 229.381Z" fill="#99BFFF"/>
<path d="M792.819 228.919C797.249 228.303 807.673 228.034 811.41 230.489C812.464 231.182 812.548 231.792 812.738 232.951C812.285 234.32 811.864 235.426 810.996 236.604C806.043 233.963 795.718 234 790.321 235.344C784.684 236.747 779.806 240.113 776.829 245.144C773.123 251.405 772.337 259.852 774.141 266.833C775.648 272.667 778.907 277.809 784.18 280.886C790.872 284.79 800.189 284.752 807.54 282.784C807.684 282.489 807.818 282.195 807.923 281.883C808.856 279.097 808.418 266.295 807.211 263.848L795.196 263.766C795.231 263.706 795.269 263.647 795.302 263.586C796.181 261.957 795.754 260.15 795.214 258.487C798.276 256.712 810.314 257.632 814.453 257.686C814.491 257.768 814.526 257.851 814.565 257.932C814.735 258.287 814.906 258.637 815.017 259.017C815.596 261.001 815.284 285.257 814.543 286.547C812.62 287.845 808.527 288.445 806.224 288.826C796.368 290.458 785.251 290.17 776.882 284.095C770.982 279.811 767.376 272.937 766.282 265.808C764.952 257.138 766.389 247.819 771.654 240.653C777.034 233.331 784.068 230.279 792.819 228.919Z" fill="#99BFFF"/>
<path d="M619.149 229.381C621.612 229.03 624.214 229.2 626.7 229.221C628.044 230.002 628.845 231.343 629.691 232.605C635.189 240.799 640.272 249.353 645.535 257.703C649.374 263.793 654.937 271.288 657.476 277.871C657.798 278.705 657.767 279.542 657.596 280.406C657.858 279.835 658.109 279.251 658.295 278.65C658.597 277.67 658.105 234.342 657.96 231.283C657.923 230.489 657.717 229.87 657.338 229.175L663.935 229.255C664.085 229.579 664.212 229.9 664.308 230.244C665.066 232.978 664.926 287.367 664.155 288.711L663.89 288.601L663.461 289.138L656.723 289.03C656.708 288.871 656.685 288.714 656.657 288.557C656.223 286.047 652.43 281.431 650.995 279.172C645.486 270.502 639.844 261.878 634.55 253.075C632.037 248.896 629.96 244.394 627.299 240.319C626.683 239.374 625.966 238.64 625.045 237.984C625.276 238.45 625.492 238.928 625.629 239.431C626.889 244.08 626.456 286.823 625.24 289.008L618.891 289.215C618.915 289.178 618.941 289.141 618.963 289.103C619.78 287.717 619.839 231.958 619.149 229.381Z" fill="#99BFFF"/>
<path d="M895.215 229.381C898.144 228.939 901.272 229.182 904.231 229.217C904.548 229.509 904.872 229.838 905.083 230.217C908.178 235.772 910.653 246.358 912.762 252.655C916.567 264.016 921.268 275.416 924.285 287.007C924.488 287.786 924.459 288.395 924.251 289.17L916.988 289.181C917.063 288.954 917.126 288.731 917.16 288.494C917.43 286.587 912.092 271.892 910.733 270.118C908.644 270.299 906.416 270.156 904.311 270.17L887.957 270.14C888.117 270.627 888.221 271.127 888.186 271.644C887.972 274.819 884.239 287.12 882.084 289.053L875.152 289.144C876.137 288.173 895.041 231.847 895.215 229.381ZM899.54 236.311C899.474 239.182 891.782 262.893 890.178 264.452L900.154 264.465C903.1 264.439 906.144 264.573 909.075 264.305C909.179 263.826 909.267 263.286 909.148 262.802C908.453 259.985 901.362 238.497 900.303 236.97C900.119 236.706 899.804 236.483 899.54 236.311Z" fill="#99BFFF"/>
<path d="M727.225 229.382C733.874 229.052 741.964 228.203 748.269 230.622C752.028 232.064 755.128 234.725 756.748 238.452C758.403 242.258 758.452 246.886 756.917 250.737C754.976 255.61 751.162 258.266 746.5 260.253C748.362 261.15 749.922 262.193 751.219 263.811C754.138 267.453 759.842 284.68 759.355 289.043L752.115 289.059C752.18 288.868 752.218 288.791 752.245 288.602C752.552 286.374 750.275 279.741 748.987 277.891C749.12 277.575 749.219 277.247 749.209 276.901C749.119 273.44 747.216 268.37 744.699 265.913C740.466 261.781 733.11 262.767 727.734 262.8C727.873 263.002 727.997 263.2 728.099 263.424C729.191 265.835 728.774 286.597 727.887 289.131L720.779 289.065C720.991 288.697 721.159 288.284 721.284 287.877C721.99 285.597 721.697 237.703 721.443 232.245C721.4 231.312 721.228 230.599 720.803 229.763L727.225 229.382ZM728.196 234.925C728.691 237.821 729.012 254.365 727.828 256.922C727.801 256.98 727.777 257.039 727.751 257.098C727.705 257.201 727.653 257.301 727.599 257.401C732.48 257.418 742.839 258.532 746.446 254.967C746.703 254.712 746.898 254.41 747.041 254.078C748.947 252.984 750.051 251.298 750.623 249.214C751.365 246.513 751.059 243.425 749.939 240.875C749.516 239.109 748.048 237.487 746.514 236.572C741.69 233.693 733.634 234.335 728.196 234.925Z" fill="#99BFFF"/>
<path d="M150.853 217.786C185.376 217.125 218.266 224.473 248.96 240.372C245.828 244.555 242.211 248.354 238.685 252.204C211.299 242.211 187.584 236.723 158.261 236.127C127.862 236.123 99.1614 242.342 71.1227 253.883C67.3039 250.272 63.7591 246.409 60.4883 242.294C65.3284 239.181 70.85 236.704 76.1028 234.385C100.002 223.83 124.88 219.044 150.853 217.786Z" fill="#263D7A"/>
<path d="M147.93 48.7054C153.829 47.8353 161.293 48.532 167.268 49.2482C198.315 52.9699 228.379 68.7645 247.795 93.5263C214.54 78.9701 187.572 72.285 150.93 72.556C117.049 74.2809 85.3017 81.9977 55.8945 99.3616C57.34 96.9862 59.256 94.7747 61.0601 92.662C84.5441 65.1607 112.13 51.5245 147.93 48.7054Z" fill="#486EAD"/>
<path d="M622.216 62.1387C654.982 61.339 687.918 62.1268 720.706 62.0315C720.951 62.4447 721.181 62.8898 721.281 63.3633C721.871 66.1465 722.119 74.263 720.68 76.5772C706.877 76.3033 693.019 76.5467 679.211 76.5541C679.246 76.6266 679.28 76.6997 679.316 76.7717C679.517 77.1697 679.702 77.562 679.807 77.9979C680.611 81.3078 679.922 95.5002 679.925 99.7387C679.938 117.517 680.692 135.636 679.88 153.379C679.835 154.366 679.651 155.075 679.123 155.923C679.334 156.26 679.514 156.598 679.646 156.975C680.55 159.563 680.304 194.603 679.26 196.734C673.664 196.813 668.058 196.714 662.462 196.684C662.66 196.3 662.832 195.903 662.935 195.482C663.668 192.468 662.951 171.11 662.951 166.013L662.948 109.38C662.945 99.5834 663.19 89.7101 662.896 79.9219C662.858 78.6469 662.775 77.7568 662.082 76.6515C648.468 76.2064 634.77 76.5355 621.146 76.5628C623.433 73.2897 620.933 66.1934 622.216 62.1387Z" fill="white"/>
<path d="M147.607 96.3633C148.821 96.2666 150.035 96.1868 151.251 96.1238C153.341 96.0357 155.432 95.982 157.523 95.9627C159.615 95.9434 161.707 95.9585 163.797 96.008C165.889 96.0576 167.978 96.1415 170.066 96.2598C172.155 96.3781 174.241 96.5307 176.324 96.7177C178.408 96.9047 180.487 97.1258 182.563 97.3812C184.639 97.6366 186.711 97.9261 188.777 98.2497C190.844 98.5733 192.905 98.9308 194.959 99.3222C197.014 99.7136 199.062 100.139 201.102 100.597C203.143 101.056 205.176 101.549 207.2 102.074C209.225 102.6 211.24 103.159 213.246 103.751C215.253 104.343 217.249 104.968 219.234 105.626C221.22 106.283 223.194 106.973 225.157 107.696C227.12 108.419 229.07 109.174 231.008 109.961C232.946 110.748 234.871 111.566 236.782 112.416C238.694 113.267 240.59 114.148 242.472 115.061C244.354 115.974 246.221 116.917 248.072 117.891C254.472 121.202 261.705 124.87 267.069 129.708C269.478 135.524 270.385 142.187 271.918 148.301C235.932 126.091 198.886 113.889 156.241 114.038C111.806 113.809 72.3815 127.616 35.8535 152.329C35.9959 147.259 36.9657 142.469 38.5967 137.674C68.9794 111.769 108.138 98.5358 147.607 96.3633Z" fill="#486EAD"/>
<path d="M145.349 176.674C189.725 174.216 228.743 185.035 266.221 208.816C264.666 213.274 262.578 217.612 260.69 221.941C253.68 218.968 247.054 215.08 239.99 212.127C215.113 201.724 190.019 197.07 163.245 195.495C122.699 194.904 84.0567 204.162 48.8364 224.432C46.8169 220.77 44.847 216.895 43.459 212.948C48.1781 209.004 53.8792 205.664 59.1739 202.558C85.6247 187.042 114.847 178.789 145.349 176.674Z" fill="#263D7A"/>
<path d="M149.45 136.483C150.831 136.426 152.212 136.384 153.594 136.358C154.976 136.331 156.358 136.32 157.741 136.325C159.123 136.329 160.505 136.348 161.887 136.382C163.268 136.416 164.649 136.466 166.03 136.531C167.41 136.595 168.79 136.675 170.17 136.771C171.548 136.866 172.926 136.977 174.303 137.103C175.679 137.228 177.054 137.369 178.428 137.525C179.801 137.68 181.172 137.851 182.542 138.038C183.912 138.224 185.279 138.425 186.644 138.641C188.009 138.857 189.372 139.088 190.732 139.334C192.092 139.58 193.45 139.842 194.804 140.118C196.158 140.394 197.51 140.684 198.858 140.99C200.206 141.296 201.55 141.616 202.891 141.952C204.231 142.287 205.568 142.637 206.902 143.003C208.235 143.367 209.564 143.747 210.889 144.141C212.213 144.535 213.534 144.943 214.85 145.367C216.166 145.79 217.477 146.228 218.783 146.68C220.089 147.132 221.391 147.598 222.687 148.079C223.983 148.559 225.273 149.054 226.558 149.564C227.843 150.072 229.122 150.595 230.396 151.133C231.669 151.67 232.936 152.221 234.198 152.787C235.46 153.352 236.715 153.931 237.964 154.524C239.212 155.116 240.454 155.723 241.69 156.343C242.925 156.963 244.153 157.597 245.375 158.245C246.596 158.891 247.81 159.552 249.017 160.226C250.223 160.9 251.423 161.587 252.615 162.288C253.806 162.988 254.99 163.701 256.166 164.428C257.342 165.154 258.51 165.894 259.67 166.646C260.829 167.398 261.98 168.162 263.124 168.94C264.266 169.718 265.4 170.508 266.526 171.31C267.652 172.112 268.768 172.927 269.876 173.755C270.983 174.581 272.081 175.42 273.171 176.272C272.735 180.942 272.021 185.616 271.431 190.271C236.421 167.958 198.756 155.304 157.061 155.107C111.178 155.82 74.6852 167.42 36.9497 193.394C36.278 188.967 35.6439 184.493 35.3984 180.02C68.1255 152.678 107.038 138.524 149.45 136.483Z" fill="#263D7A"/>
<path d="M735.17 62.1386L782.753 62.0893C790.787 62.0992 799.024 62.4791 807.034 61.9814C807.068 62.0549 807.103 62.1288 807.138 62.2018C807.33 62.6011 807.503 62.9928 807.609 63.4256C808.287 66.2004 808.199 73.8735 806.712 76.2434L751.162 76.2176C751.386 76.5821 751.596 76.9608 751.724 77.3715C752.317 79.2745 752.126 112.843 751.871 117.311C751.829 118.031 751.58 118.633 751.232 119.257L803.974 119.298C804.175 119.678 804.346 120.064 804.457 120.481C805.177 123.187 805.218 130.808 803.863 133.171C786.342 132.694 768.673 132.983 751.141 133.186C751.178 133.257 751.213 133.329 751.251 133.399C751.385 133.644 751.516 133.883 751.62 134.143C752.514 136.371 752.052 147.323 751.193 149.465C751.376 149.792 751.566 150.162 751.648 150.53C752.33 153.585 752.168 176.49 751.876 180.637C751.827 181.326 751.567 181.907 751.217 182.494L809.909 182.512C809.95 182.588 809.988 182.665 810.031 182.74C810.275 183.163 810.493 183.551 810.635 184.023C811.463 186.75 811.371 194.305 810.031 196.83C785.357 195.884 759.149 196.679 734.354 196.675C734.826 196.02 735.064 195.338 735.1 194.534C735.649 182.366 735.144 169.943 735.144 157.753L735.123 88.5474C735.094 80.1919 733.83 70.3396 735.17 62.1386Z" fill="white"/>
<path d="M432.435 62.0373C456.011 62.6465 479.667 61.7962 503.258 62.1086C503.629 62.1432 504.746 62.126 504.95 62.387C506.444 64.2926 505.846 70.9972 505.527 73.4435C505.462 73.9395 505.242 74.4119 505.006 74.8479C505.265 75.31 505.296 75.6392 505.318 76.1641C499.712 77.3169 492.909 76.5896 487.174 76.5739C474.525 76.5393 461.849 76.3261 449.204 76.571C449.564 77.1579 449.827 77.8965 449.889 78.5876C450.483 85.1835 449.91 92.3547 449.896 99.0045C449.883 105.671 450.374 112.588 449.912 119.218C467.176 118.883 484.515 119.136 501.786 119.243C502.027 119.644 502.229 120.049 502.362 120.5C503.121 123.083 503.054 130.887 501.768 133.239L449.123 133.188C449.202 133.349 449.206 133.347 449.265 133.494C449.289 133.554 449.311 133.615 449.334 133.675C449.445 133.959 449.551 134.24 449.633 134.534C450.227 136.663 450.207 176.579 449.869 180.856C449.826 181.392 449.569 181.915 449.31 182.378C468.77 182.828 488.317 182.322 507.79 182.491C507.999 182.814 508.196 183.151 508.331 183.513C509.305 186.115 509.06 194.26 507.879 196.796C499.992 196.088 491.397 196.717 483.455 196.712L432.383 196.702C432.535 196.468 432.654 196.266 432.752 196.004C433.876 192.991 433.39 75.8078 433.12 65.5484C433.086 64.2741 432.949 63.2198 432.435 62.0373Z" fill="white"/>
<path d="M904.277 62.0953C910.678 61.9038 917.117 62.0223 923.521 62.0678C923.535 62.2914 923.525 62.518 923.513 62.7418C923.447 63.9658 885.87 124.981 882.954 127.532C884.95 129.175 924.33 194.667 924.515 195.935L923.893 196.635L921.404 196.737L905.114 196.775C905.106 196.25 905.052 195.707 904.831 195.225C902.517 190.153 874.59 142.51 871.797 139.786C871.849 140.033 871.886 140.296 871.848 140.548C871.478 142.978 845.531 189.278 842.343 194.436C841.819 195.284 841.288 195.896 840.497 196.509C834.375 197.35 827.121 196.717 820.924 196.594C820.998 196.539 821.073 196.485 821.145 196.428C822.891 195.065 862.032 131.098 862.396 128.468C861.965 123.98 827.942 72.8953 823.636 62.1384C829.802 61.9372 836.112 61.8598 842.274 62.1492C842.507 62.3071 842.734 62.4729 842.948 62.6576C845.037 64.4658 870.574 110.913 872.943 115.521C873.19 116.002 873.271 116.483 873.309 117.018C876.177 114.188 880.394 104.318 882.588 100.412C887.184 92.2331 891.991 84.1611 896.712 76.0535C898.308 73.3136 904.197 64.6101 904.277 62.0953Z" fill="white"/>
<path d="M326.119 62.1351L342.341 62.2084C342.571 62.5557 342.777 62.9225 342.895 63.3243C343.567 65.6016 343.598 118.358 343.147 124.945C343.075 126 342.78 126.928 342.244 127.841C343.237 127.239 344.155 126.51 344.91 125.622C349.297 120.453 353.206 114.754 357.457 109.448C362.048 103.718 394.688 65.0782 395.577 62.169C402.455 61.9498 409.4 62.1827 416.283 62.2366C415.963 63.7456 371.213 116.957 367.965 119.139C369.813 120.371 401.015 166.531 401.599 168.849C401.73 168.948 401.859 169.049 401.983 169.156C404.493 171.288 420.266 194.419 420.416 196.839L400.74 196.662C400.735 196.598 400.739 196.533 400.727 196.471C400.526 195.436 361.56 137.668 357.469 132.088C356.92 131.339 356.315 130.767 355.541 130.251C355.532 130.304 355.525 130.358 355.514 130.411C355.017 132.721 344.677 143.968 342.431 145.333C342.524 145.528 342.555 145.576 342.621 145.764C343.512 148.302 343.557 194.564 342.503 196.741L325.424 196.728C325.785 196.121 326.053 195.439 326.111 194.73C326.52 189.723 326.176 184.412 326.173 179.377L326.147 148.328C326.126 119.603 326.455 90.856 326.119 62.1351Z" fill="white"/>
<path d="M547.591 61.676C562.921 60.6791 582.658 59.7351 596.266 67.958C603.764 72.4888 609.143 79.4582 611.198 88.0069C613.448 97.3672 612.259 108.054 607.186 116.315C602.411 124.092 594.129 129.989 585.278 132.137C591.44 133.764 596.836 137.977 600.27 143.29C602.407 146.596 603.887 150.251 605.121 153.973C608.055 162.816 609.587 172.258 611.959 181.278C612.919 184.928 616.789 193.641 616.119 196.713C610.361 196.794 604.604 196.755 598.847 196.598C598.92 196.391 598.972 196.186 599.001 195.967C599.158 194.768 597.722 191.784 597.296 190.463C596.036 186.549 593.141 171.996 591.21 169.818C591.341 169.349 591.438 168.88 591.452 168.391C591.649 161.855 586.393 149.295 581.849 144.819C572.888 135.99 557.504 138.011 545.985 138.1C546.198 138.425 546.361 138.804 546.485 139.172C547.081 140.934 546.829 188.514 546.562 193.663C546.505 194.766 546.348 195.686 545.886 196.699C541.993 195.907 533.521 196.651 529.129 196.661C529.246 196.48 529.35 196.303 529.436 196.104C530.574 193.466 530.048 77.7121 529.782 66.4042C529.76 65.4597 529.676 64.7449 529.304 63.8628C535.38 62.9705 541.476 62.2416 547.591 61.676ZM550.729 74.6121C549.127 74.9868 547.622 75.3327 545.967 75.3654C546.862 78.9432 546.82 124.023 545.921 125.506C545.885 125.565 545.844 125.62 545.806 125.677C555.104 125.708 577.153 127.341 584.181 120.579C584.397 120.371 584.584 120.132 584.758 119.889C589.121 117.991 592.331 113.622 594.015 109.291C596.522 102.849 596.369 94.8356 593.527 88.5178C590.923 82.7272 586.188 78.924 580.322 76.7479C571.045 73.3071 560.467 73.9427 550.729 74.6121Z" fill="white"/>
<path d="M219.051 268.429C219.117 268.438 219.182 268.451 219.248 268.457C223.323 268.829 242.756 254.056 246.179 250.987C275.046 225.107 291.654 190.774 293.699 152.043C294.002 146.309 293.501 140.598 292.976 134.893C290.143 104.1 277.46 76.7456 256.789 53.8751C249.942 46.2997 241.241 38.7707 232.809 33.0217C230.875 31.7034 220.754 26.3162 220.297 25.1507C221.362 24.6965 222.179 25.0846 223.224 25.5126C226.965 27.0445 230.48 29.4526 233.922 31.5512C259.087 46.8963 279.479 71.9938 290.51 99.2413C290.954 100.344 291.385 101.453 291.803 102.567C292.221 103.681 292.625 104.8 293.015 105.923C293.405 107.047 293.782 108.175 294.145 109.308C294.507 110.441 294.856 111.578 295.192 112.719C295.527 113.86 295.848 115.005 296.156 116.154C296.463 117.303 296.756 118.456 297.036 119.612C297.315 120.769 297.58 121.928 297.832 123.091C298.083 124.254 298.32 125.419 298.543 126.588C298.765 127.756 298.974 128.927 299.168 130.101C299.362 131.274 299.542 132.45 299.708 133.628C299.874 134.806 300.025 135.986 300.162 137.167C300.298 138.349 300.421 139.532 300.53 140.717C300.638 141.901 300.731 143.087 300.811 144.274C300.89 145.461 300.955 146.648 301.005 147.837C301.055 149.025 301.091 150.214 301.113 151.403C301.134 152.592 301.141 153.782 301.134 154.972C301.126 156.161 301.104 157.35 301.068 158.539C301.032 159.728 300.981 160.917 300.916 162.104C300.85 163.292 300.771 164.479 300.677 165.665C300.582 166.85 300.473 168.035 300.351 169.218C300.227 170.401 300.09 171.583 299.939 172.762C299.787 173.942 299.62 175.12 299.44 176.296C299.26 177.471 299.065 178.645 298.856 179.816C298.647 180.987 298.424 182.155 298.187 183.321C297.949 184.486 297.697 185.649 297.432 186.808C297.166 187.968 296.886 189.124 296.593 190.277C296.299 191.429 295.991 192.578 295.669 193.723C295.347 194.868 295.012 196.009 294.662 197.146C294.312 198.283 293.949 199.416 293.572 200.544C293.195 201.672 292.804 202.795 292.4 203.914C291.995 205.033 291.577 206.146 291.146 207.255C290.714 208.364 290.269 209.467 289.811 210.564C289.345 211.675 288.866 212.779 288.374 213.878C287.881 214.977 287.375 216.07 286.856 217.157C286.336 218.243 285.804 219.323 285.259 220.397C284.713 221.47 284.154 222.537 283.583 223.597C283.011 224.657 282.427 225.71 281.83 226.756C281.232 227.801 280.622 228.84 280 229.871C279.377 230.902 278.742 231.925 278.095 232.94C277.447 233.955 276.788 234.963 276.116 235.962C275.444 236.961 274.76 237.952 274.064 238.935C273.368 239.918 272.66 240.892 271.94 241.857C271.22 242.822 270.488 243.779 269.745 244.726C269.001 245.674 268.247 246.612 267.481 247.541C266.715 248.47 265.937 249.39 265.149 250.3C264.361 251.211 263.561 252.111 262.751 253.002C261.94 253.893 261.119 254.773 260.288 255.644C259.456 256.515 258.613 257.375 257.76 258.225C256.907 259.075 256.044 259.915 255.171 260.744C254.297 261.573 253.414 262.391 252.521 263.199C251.627 264.006 250.724 264.803 249.812 265.588C248.899 266.374 247.977 267.148 247.046 267.911C246.114 268.674 245.174 269.426 244.224 270.166C243.274 270.906 242.315 271.634 241.348 272.351C240.38 273.068 239.403 273.773 238.419 274.466C237.434 275.159 236.441 275.84 235.44 276.509C234.438 277.178 233.429 277.834 232.412 278.478C231.394 279.122 230.368 279.754 229.336 280.373C228.303 280.992 227.263 281.599 226.216 282.192C225.168 282.786 224.113 283.367 223.052 283.935C221.99 284.503 220.921 285.058 219.846 285.6C218.77 286.142 217.689 286.671 216.601 287.187C215.513 287.702 214.419 288.205 213.319 288.694C212.218 289.183 211.112 289.658 210 290.12C174.689 304.385 133.804 305.394 98.4937 290.361C60.2407 274.074 31.888 245.273 16.3909 206.772C1.38915 169.502 4.83193 127.646 20.4324 91.1655C32.1357 63.7984 62.1415 34.1017 89.7236 23.2321C90.2148 23.0386 90.6885 22.9522 91.2129 22.9111C89.5816 24.8791 78.8222 31.0298 75.7544 33.1073C72.1707 35.4927 68.736 38.0764 65.4503 40.8582C36.5644 65.0493 18.1512 97.1489 14.8609 135.02C14.235 142.223 13.76 149.157 14.4353 156.38C17.9908 194.409 34.21 228.112 63.8672 252.679C68.0116 256.112 85.5659 269.222 89.9409 268.841C124.119 257.003 162.409 255.156 197.761 262.522C204.805 263.989 212.431 265.561 219.051 268.429Z" fill="#89CCDE"/>
<path d="M89.9395 268.841C124.117 257.003 162.407 255.156 197.759 262.522C204.803 263.989 212.429 265.561 219.049 268.429C212.31 272.11 205.749 275.95 198.619 278.861C197.061 279.483 195.491 280.072 193.908 280.628C192.325 281.184 190.732 281.707 189.128 282.197C187.523 282.686 185.909 283.142 184.286 283.565C182.663 283.987 181.031 284.375 179.391 284.73C177.752 285.084 176.105 285.403 174.452 285.689C172.799 285.974 171.141 286.225 169.477 286.442C167.814 286.658 166.147 286.839 164.476 286.986C162.805 287.132 161.131 287.244 159.456 287.321C157.78 287.397 156.103 287.439 154.426 287.446C152.749 287.452 151.072 287.424 149.395 287.361C147.719 287.297 146.045 287.199 144.373 287.067C142.7 286.933 141.032 286.765 139.367 286.563C137.702 286.359 136.041 286.122 134.386 285.85C132.731 285.578 131.082 285.271 129.439 284.93C127.797 284.589 126.163 284.214 124.536 283.805C122.909 283.395 121.291 282.952 119.683 282.476C117.058 281.702 114.463 280.836 111.899 279.876C109.336 278.916 106.81 277.866 104.322 276.726C101.834 275.585 99.3899 274.357 96.9895 273.041C94.5893 271.725 92.2393 270.325 89.9395 268.841Z" fill="#263D7A"/>
</svg>
