<svg width="295" height="279" viewBox="0 0 295 279" fill="none" xmlns="http://www.w3.org/2000/svg">
<path d="M144.087 194.875C178.61 194.214 211.5 201.562 242.194 217.461C239.062 221.644 235.445 225.443 231.919 229.293C204.533 219.3 180.818 213.812 151.495 213.216C121.096 213.212 92.3958 219.431 64.3571 230.972C60.5383 227.361 56.9935 223.498 53.7227 219.383C58.5628 216.27 64.0844 213.793 69.3372 211.474C93.2363 200.919 118.114 196.133 144.087 194.875Z" fill="#263D7A"/>
<path d="M141.165 25.7943C147.064 24.9242 154.528 25.6209 160.503 26.3371C191.55 30.0588 221.614 45.8534 241.03 70.6152C207.775 56.059 180.807 49.3739 144.165 49.6449C110.284 51.3698 78.5361 59.0866 49.1289 76.4505C50.5744 74.0751 52.4904 71.8636 54.2945 69.7509C77.7785 42.2496 105.365 28.6134 141.165 25.7943Z" fill="#486EAD"/>
<path d="M140.842 73.4522C142.055 73.3555 143.27 73.2756 144.486 73.2127C146.576 73.1246 148.666 73.0709 150.758 73.0516C152.85 73.0323 154.941 73.0474 157.032 73.0969C159.123 73.1464 161.213 73.2304 163.301 73.3487C165.389 73.467 167.475 73.6196 169.559 73.8066C171.642 73.9935 173.722 74.2147 175.798 74.4701C177.874 74.7255 179.945 75.015 182.012 75.3386C184.078 75.6622 186.139 76.0197 188.194 76.4111C190.248 76.8025 192.296 77.2275 194.337 77.686C196.377 78.1453 198.41 78.6377 200.435 79.163C202.459 79.689 204.475 80.248 206.481 80.84C208.487 81.432 210.483 82.057 212.469 82.715C214.454 83.3723 216.428 84.0623 218.392 84.785C220.354 85.5077 222.305 86.2627 224.243 87.05C226.181 87.8367 228.105 88.655 230.017 89.505C231.928 90.3557 233.825 91.2373 235.707 92.15C237.589 93.0627 239.455 94.006 241.307 94.98C247.707 98.291 254.94 101.959 260.304 106.797C262.713 112.613 263.62 119.276 265.153 125.39C229.167 103.18 192.121 90.978 149.476 91.127C105.041 90.898 65.6159 104.705 29.0879 129.418C29.2303 124.348 30.2001 119.558 31.8311 114.763C62.2138 88.858 101.373 75.6247 140.842 73.4522Z" fill="#486EAD"/>
<path d="M138.584 153.763C182.96 151.305 221.978 162.124 259.456 185.905C257.901 190.363 255.813 194.701 253.925 199.03C246.915 196.057 240.289 192.169 233.225 189.216C208.348 178.813 183.254 174.159 156.48 172.584C115.934 171.993 77.2911 181.251 42.0708 201.521C40.0513 197.859 38.0814 193.984 36.6934 190.037C41.4125 186.093 47.1136 182.753 52.4083 179.647C78.8591 164.131 108.082 155.878 138.584 153.763Z" fill="#263D7A"/>
<path d="M142.684 113.572C144.065 113.515 145.447 113.473 146.828 113.447C148.21 113.42 149.592 113.409 150.975 113.414C152.357 113.418 153.739 113.437 155.121 113.471C156.502 113.505 157.883 113.555 159.264 113.62C160.645 113.684 162.025 113.764 163.404 113.86C164.783 113.955 166.16 114.066 167.537 114.192C168.914 114.317 170.289 114.458 171.662 114.614C173.035 114.769 174.407 114.94 175.776 115.127C177.146 115.313 178.513 115.514 179.878 115.73C181.243 115.946 182.606 116.177 183.966 116.423C185.327 116.669 186.684 116.931 188.038 117.207C189.393 117.483 190.744 117.773 192.092 118.079C193.44 118.385 194.784 118.705 196.125 119.041C197.466 119.376 198.803 119.726 200.136 120.092C201.469 120.456 202.798 120.836 204.123 121.23C205.448 121.624 206.768 122.032 208.084 122.456C209.4 122.879 210.711 123.317 212.017 123.769C213.324 124.221 214.625 124.687 215.921 125.168C217.217 125.648 218.507 126.143 219.792 126.653C221.077 127.161 222.357 127.684 223.63 128.222C224.903 128.759 226.171 129.31 227.432 129.876C228.694 130.441 229.949 131.02 231.198 131.613C232.447 132.205 233.689 132.812 234.924 133.432C236.159 134.052 237.388 134.686 238.609 135.334C239.83 135.98 241.044 136.641 242.251 137.315C243.458 137.989 244.657 138.676 245.849 139.377C247.04 140.077 248.224 140.79 249.4 141.517C250.576 142.243 251.744 142.983 252.904 143.735C254.063 144.487 255.215 145.251 256.358 146.029C257.501 146.807 258.635 147.597 259.76 148.399C260.886 149.201 262.003 150.016 263.11 150.844C264.217 151.67 265.316 152.509 266.405 153.361C265.969 158.031 265.255 162.705 264.665 167.36C229.655 145.047 191.99 132.393 150.295 132.196C104.412 132.909 67.9196 144.509 30.1841 170.483C29.5124 166.056 28.8783 161.582 28.6328 157.109C61.3599 129.767 100.272 115.613 142.684 113.572Z" fill="#263D7A"/>
<path d="M212.285 245.518C212.351 245.527 212.416 245.54 212.482 245.546C216.557 245.918 235.99 231.145 239.413 228.076C268.28 202.196 284.888 167.863 286.933 129.132C287.236 123.398 286.735 117.687 286.21 111.982C283.377 81.1888 270.694 53.8345 250.023 30.964C243.176 23.3886 234.475 15.8596 226.043 10.1106C224.109 8.7923 213.988 3.4051 213.531 2.2396C214.596 1.7854 215.413 2.1735 216.458 2.6015C220.199 4.1334 223.714 6.5415 227.156 8.6401C252.321 23.9852 272.713 49.0827 283.744 76.3302C284.189 77.4333 284.62 78.5418 285.037 79.6558C285.455 80.7698 285.859 81.8885 286.249 83.0118C286.64 84.1358 287.016 85.2641 287.379 86.3968C287.742 87.5295 288.091 88.6665 288.426 89.8078C288.761 90.9491 289.083 92.0941 289.39 93.2428C289.697 94.3921 289.991 95.5448 290.27 96.7008C290.549 97.8575 290.815 99.0171 291.066 100.18C291.317 101.342 291.554 102.508 291.777 103.677C292 104.845 292.208 106.016 292.402 107.19C292.597 108.363 292.777 109.539 292.942 110.717C293.108 111.895 293.259 113.074 293.396 114.256C293.533 115.438 293.655 116.621 293.764 117.806C293.872 118.99 293.966 120.175 294.045 121.363C294.124 122.549 294.189 123.737 294.239 124.926C294.29 126.114 294.326 127.302 294.347 128.492C294.368 129.681 294.375 130.871 294.368 132.061C294.361 133.25 294.339 134.439 294.302 135.628C294.266 136.817 294.215 138.005 294.15 139.193C294.085 140.381 294.005 141.568 293.911 142.754C293.816 143.939 293.708 145.123 293.585 146.307C293.462 147.49 293.324 148.671 293.173 149.851C293.021 151.031 292.855 152.209 292.674 153.385C292.494 154.56 292.299 155.733 292.09 156.905C291.881 158.075 291.658 159.244 291.421 160.41C291.183 161.575 290.931 162.737 290.666 163.897C290.4 165.057 290.12 166.213 289.827 167.366C289.533 168.518 289.225 169.666 288.903 170.812C288.582 171.957 288.246 173.098 287.896 174.235C287.547 175.372 287.183 176.505 286.806 177.633C286.429 178.761 286.039 179.884 285.634 181.003C285.229 182.121 284.811 183.235 284.38 184.344C283.949 185.452 283.504 186.555 283.045 187.653C282.58 188.763 282.101 189.868 281.608 190.967C281.115 192.066 280.609 193.159 280.09 194.246C279.571 195.332 279.038 196.412 278.493 197.486C277.947 198.559 277.388 199.626 276.817 200.686C276.246 201.746 275.661 202.799 275.064 203.845C274.467 204.89 273.857 205.928 273.234 206.96C272.611 207.99 271.976 209.013 271.329 210.029C270.682 211.044 270.022 212.051 269.35 213.051C268.678 214.05 267.994 215.041 267.298 216.024C266.602 217.006 265.894 217.98 265.174 218.946C264.454 219.911 263.722 220.867 262.979 221.815C262.236 222.763 261.481 223.701 260.715 224.63C259.949 225.559 259.172 226.479 258.383 227.389C257.595 228.299 256.796 229.2 255.985 230.091C255.174 230.981 254.353 231.862 253.522 232.733C252.69 233.603 251.847 234.464 250.994 235.314C250.141 236.164 249.278 237.003 248.405 237.833C247.532 238.661 246.648 239.48 245.755 240.288C244.862 241.095 243.959 241.891 243.046 242.677C242.133 243.463 241.211 244.237 240.28 245C239.349 245.763 238.408 246.515 237.458 247.255C236.508 247.995 235.549 248.723 234.582 249.44C233.614 250.157 232.638 250.862 231.653 251.555C230.668 252.247 229.675 252.928 228.674 253.598C227.673 254.266 226.663 254.923 225.646 255.567C224.628 256.211 223.603 256.842 222.57 257.462C221.537 258.081 220.497 258.687 219.45 259.281C218.402 259.875 217.347 260.456 216.286 261.024C215.224 261.592 214.155 262.147 213.08 262.689C212.005 263.231 210.923 263.76 209.835 264.276C208.747 264.791 207.653 265.293 206.553 265.783C205.452 266.271 204.346 266.747 203.234 267.209C167.923 281.474 127.038 282.483 91.7281 267.45C53.4751 251.163 25.1224 222.362 9.62527 183.861C-5.37648 146.591 -1.9337 104.735 13.6668 68.2544C25.3701 40.8873 55.3759 11.1906 82.958 0.321001C83.4492 0.127501 83.9229 0.0411 84.4473 0C82.816 1.968 72.0566 8.1187 68.9888 10.1962C65.405 12.5816 61.9703 15.1652 58.6847 17.9471C29.7988 42.1382 11.3856 74.2378 8.09527 112.109C7.46937 119.312 6.99437 126.246 7.66967 133.469C11.2252 171.498 27.4444 205.201 57.1016 229.768C61.246 233.201 78.8003 246.311 83.1753 245.93C117.353 234.092 155.643 232.245 190.995 239.611C198.039 241.078 205.665 242.65 212.285 245.518Z" fill="#89CCDE"/>
<path d="M83.1738 245.93C117.352 234.092 155.642 232.245 190.994 239.611C198.038 241.078 205.664 242.65 212.284 245.518C205.545 249.199 198.984 253.039 191.854 255.95C190.296 256.572 188.725 257.161 187.143 257.717C185.56 258.273 183.967 258.796 182.363 259.286C180.758 259.775 179.144 260.231 177.521 260.654C175.897 261.076 174.266 261.464 172.626 261.819C170.986 262.173 169.34 262.492 167.687 262.778C166.034 263.063 164.376 263.314 162.712 263.531C161.048 263.747 159.381 263.928 157.711 264.075C156.039 264.221 154.366 264.333 152.691 264.41C151.015 264.486 149.338 264.528 147.661 264.535C145.983 264.541 144.306 264.513 142.63 264.45C140.954 264.386 139.28 264.288 137.608 264.156C135.935 264.022 134.266 263.854 132.602 263.652C130.936 263.448 129.276 263.211 127.621 262.939C125.965 262.667 124.316 262.36 122.674 262.019C121.032 261.678 119.397 261.303 117.771 260.894C116.143 260.484 114.526 260.041 112.918 259.565C110.292 258.791 107.698 257.925 105.134 256.965C102.57 256.005 100.045 254.955 97.5565 253.815C95.0685 252.674 92.6243 251.446 90.2238 250.13C87.8237 248.814 85.4737 247.414 83.1738 245.93Z" fill="#263D7A"/>
</svg>
